o Torus
v 270 135 0
v 266.57 152.22 0
v 256.82 166.82 0
v 242.22 176.57 0
v 225 180 0
v 207.78 176.57 0
v 193.18 166.82 0
v 183.43 152.22 0
v 180 135 0
v 183.43 117.78 0
v 193.18 103.18 0
v 207.78 93.43 0
v 225 90 0
v 242.22 93.43 0
v 256.82 103.18 0
v 266.57 117.78 0
v 270 135 0
v 267.41 135 26.34
v 264.05 152.22 25.67
v 254.48 166.82 23.77
v 240.16 176.57 20.92
v 223.27 180 17.56
v 206.38 176.57 14.2
v 192.06 166.82 11.35
v 182.49 152.22 9.45
v 179.14 135 8.78
v 182.49 117.78 9.45
v 192.06 103.18 11.35
v 206.38 93.43 14.2
v 223.27 90 17.56
v 240.16 93.43 20.92
v 254.48 103.18 23.77
v 264.05 117.78 25.67
v 267.41 135 26.34
v 259.72 135 51.66
v 256.56 152.22 50.35
v 247.55 166.82 46.62
v 234.06 176.57 41.03
v 218.15 180 34.44
v 202.24 176.57 27.85
v 188.75 166.82 22.26
v 179.74 152.22 18.53
v 176.57 135 17.22
v 179.74 117.78 18.53
v 188.75 103.18 22.26
v 202.24 93.43 27.85
v 218.15 90 34.44
v 234.06 93.43 41.03
v 247.55 103.18 46.62
v 256.56 117.78 50.35
v 259.72 135 51.66
v 247.25 135 75
v 244.4 152.22 73.1
v 236.29 166.82 67.68
v 224.15 176.57 59.57
v 209.83 180 50
v 195.51 176.57 40.43
v 183.38 166.82 32.32
v 175.26 152.22 26.9
v 172.42 135 25
v 175.26 117.78 26.9
v 183.38 103.18 32.32
v 195.51 93.43 40.43
v 209.83 90 50
v 224.15 93.43 59.57
v 236.29 103.18 67.68
v 244.4 117.78 73.1
v 247.25 135 75
v 230.46 135 95.46
v 228.04 152.22 93.04
v 221.14 166.82 86.14
v 210.82 176.57 75.82
v 198.64 180 63.64
v 186.46 176.57 51.46
v 176.14 166.82 41.14
v 169.24 152.22 34.24
v 166.82 135 31.82
v 169.24 117.78 34.24
v 176.14 103.18 41.14
v 186.46 93.43 51.46
v 198.64 90 63.64
v 210.82 93.43 75.82
v 221.14 103.18 86.14
v 228.04 117.78 93.04
v 230.46 135 95.46
v 210 135 112.25
v 208.1 152.22 109.4
v 202.68 166.82 101.29
v 194.57 176.57 89.15
v 185 180 74.83
v 175.43 176.57 60.51
v 167.32 166.82 48.38
v 161.9 152.22 40.26
v 160 135 37.42
v 161.9 117.78 40.26
v 167.32 103.18 48.38
v 175.43 93.43 60.51
v 185 90 74.83
v 194.57 93.43 89.15
v 202.68 103.18 101.29
v 208.1 117.78 109.4
v 210 135 112.25
v 186.66 135 124.72
v 185.35 152.22 121.56
v 181.62 166.82 112.55
v 176.03 176.57 99.06
v 169.44 180 83.15
v 162.85 176.57 67.24
v 157.26 166.82 53.75
v 153.53 152.22 44.74
v 152.22 135 41.57
v 153.53 117.78 44.74
v 157.26 103.18 53.75
v 162.85 93.43 67.24
v 169.44 90 83.15
v 176.03 93.43 99.06
v 181.62 103.18 112.55
v 185.35 117.78 121.56
v 186.66 135 124.72
v 161.34 135 132.41
v 160.67 152.22 129.05
v 158.77 166.82 119.48
v 155.92 176.57 105.16
v 152.56 180 88.27
v 149.2 176.57 71.38
v 146.35 166.82 57.06
v 144.45 152.22 47.49
v 143.78 135 44.14
v 144.45 117.78 47.49
v 146.35 103.18 57.06
v 149.2 93.43 71.38
v 152.56 90 88.27
v 155.92 93.43 105.16
v 158.77 103.18 119.48
v 160.67 117.78 129.05
v 161.34 135 132.41
v 135 135 135
v 135 152.22 131.57
v 135 166.82 121.82
v 135 176.57 107.22
v 135 180 90
v 135 176.57 72.78
v 135 166.82 58.18
v 135 152.22 48.43
v 135 135 45
v 135 117.78 48.43
v 135 103.18 58.18
v 135 93.43 72.78
v 135 90 90
v 135 93.43 107.22
v 135 103.18 121.82
v 135 117.78 131.57
v 135 135 135
v 108.66 135 132.41
v 109.33 152.22 129.05
v 111.23 166.82 119.48
v 114.08 176.57 105.16
v 117.44 180 88.27
v 120.8 176.57 71.38
v 123.65 166.82 57.06
v 125.55 152.22 47.49
v 126.22 135 44.14
v 125.55 117.78 47.49
v 123.65 103.18 57.06
v 120.8 93.43 71.38
v 117.44 90 88.27
v 114.08 93.43 105.16
v 111.23 103.18 119.48
v 109.33 117.78 129.05
v 108.66 135 132.41
v 83.34 135 124.72
v 84.65 152.22 121.56
v 88.38 166.82 112.55
v 93.97 176.57 99.06
v 100.56 180 83.15
v 107.15 176.57 67.24
v 112.74 166.82 53.75
v 116.47 152.22 44.74
v 117.78 135 41.57
v 116.47 117.78 44.74
v 112.74 103.18 53.75
v 107.15 93.43 67.24
v 100.56 90 83.15
v 93.97 93.43 99.06
v 88.38 103.18 112.55
v 84.65 117.78 121.56
v 83.34 135 124.72
v 60 135 112.25
v 61.9 152.22 109.4
v 67.32 166.82 101.29
v 75.43 176.57 89.15
v 85 180 74.83
v 94.57 176.57 60.51
v 102.68 166.82 48.38
v 108.1 152.22 40.26
v 110 135 37.42
v 108.1 117.78 40.26
v 102.68 103.18 48.38
v 94.57 93.43 60.51
v 85 90 74.83
v 75.43 93.43 89.15
v 67.32 103.18 101.29
v 61.9 117.78 109.4
v 60 135 112.25
v 39.54 135 95.46
v 41.96 152.22 93.04
v 48.86 166.82 86.14
v 59.18 176.57 75.82
v 71.36 180 63.64
v 83.54 176.57 51.46
v 93.86 166.82 41.14
v 100.76 152.22 34.24
v 103.18 135 31.82
v 100.76 117.78 34.24
v 93.86 103.18 41.14
v 83.54 93.43 51.46
v 71.36 90 63.64
v 59.18 93.43 75.82
v 48.86 103.18 86.14
v 41.96 117.78 93.04
v 39.54 135 95.46
v 22.75 135 75
v 25.6 152.22 73.1
v 33.71 166.82 67.68
v 45.85 176.57 59.57
v 60.17 180 50
v 74.49 176.57 40.43
v 86.62 166.82 32.32
v 94.74 152.22 26.9
v 97.58 135 25
v 94.74 117.78 26.9
v 86.62 103.18 32.32
v 74.49 93.43 40.43
v 60.17 90 50
v 45.85 93.43 59.57
v 33.71 103.18 67.68
v 25.6 117.78 73.1
v 22.75 135 75
v 10.28 135 51.66
v 13.44 152.22 50.35
v 22.45 166.82 46.62
v 35.94 176.57 41.03
v 51.85 180 34.44
v 67.76 176.57 27.85
v 81.25 166.82 22.26
v 90.26 152.22 18.53
v 93.43 135 17.22
v 90.26 117.78 18.53
v 81.25 103.18 22.26
v 67.76 93.43 27.85
v 51.85 90 34.44
v 35.94 93.43 41.03
v 22.45 103.18 46.62
v 13.44 117.78 50.35
v 10.28 135 51.66
v 2.59 135 26.34
v 5.95 152.22 25.67
v 15.52 166.82 23.77
v 29.84 176.57 20.92
v 46.73 180 17.56
v 63.62 176.57 14.2
v 77.94 166.82 11.35
v 87.51 152.22 9.45
v 90.86 135 8.78
v 87.51 117.78 9.45
v 77.94 103.18 11.35
v 63.62 93.43 14.2
v 46.73 90 17.56
v 29.84 93.43 20.92
v 15.52 103.18 23.77
v 5.95 117.78 25.67
v 2.59 135 26.34
v 0 135 0
v 3.43 152.22 0
v 13.18 166.82 0
v 27.78 176.57 0
v 45 180 0
v 62.22 176.57 0
v 76.82 166.82 0
v 86.57 152.22 0
v 90 135 0
v 86.57 117.78 0
v 76.82 103.18 0
v 62.22 93.43 0
v 45 90 0
v 27.78 93.43 0
v 13.18 103.18 0
v 3.43 117.78 0
v 0 135 0
v 2.59 135 -26.34
v 5.95 152.22 -25.67
v 15.52 166.82 -23.77
v 29.84 176.57 -20.92
v 46.73 180 -17.56
v 63.62 176.57 -14.2
v 77.94 166.82 -11.35
v 87.51 152.22 -9.45
v 90.86 135 -8.78
v 87.51 117.78 -9.45
v 77.94 103.18 -11.35
v 63.62 93.43 -14.2
v 46.73 90 -17.56
v 29.84 93.43 -20.92
v 15.52 103.18 -23.77
v 5.95 117.78 -25.67
v 2.59 135 -26.34
v 10.28 135 -51.66
v 13.44 152.22 -50.35
v 22.45 166.82 -46.62
v 35.94 176.57 -41.03
v 51.85 180 -34.44
v 67.76 176.57 -27.85
v 81.25 166.82 -22.26
v 90.26 152.22 -18.53
v 93.43 135 -17.22
v 90.26 117.78 -18.53
v 81.25 103.18 -22.26
v 67.76 93.43 -27.85
v 51.85 90 -34.44
v 35.94 93.43 -41.03
v 22.45 103.18 -46.62
v 13.44 117.78 -50.35
v 10.28 135 -51.66
v 22.75 135 -75
v 25.6 152.22 -73.1
v 33.71 166.82 -67.68
v 45.85 176.57 -59.57
v 60.17 180 -50
v 74.49 176.57 -40.43
v 86.62 166.82 -32.32
v 94.74 152.22 -26.9
v 97.58 135 -25
v 94.74 117.78 -26.9
v 86.62 103.18 -32.32
v 74.49 93.43 -40.43
v 60.17 90 -50
v 45.85 93.43 -59.57
v 33.71 103.18 -67.68
v 25.6 117.78 -73.1
v 22.75 135 -75
v 39.54 135 -95.46
v 41.96 152.22 -93.04
v 48.86 166.82 -86.14
v 59.18 176.57 -75.82
v 71.36 180 -63.64
v 83.54 176.57 -51.46
v 93.86 166.82 -41.14
v 100.76 152.22 -34.24
v 103.18 135 -31.82
v 100.76 117.78 -34.24
v 93.86 103.18 -41.14
v 83.54 93.43 -51.46
v 71.36 90 -63.64
v 59.18 93.43 -75.82
v 48.86 103.18 -86.14
v 41.96 117.78 -93.04
v 39.54 135 -95.46
v 60 135 -112.25
v 61.9 152.22 -109.4
v 67.32 166.82 -101.29
v 75.43 176.57 -89.15
v 85 180 -74.83
v 94.57 176.57 -60.51
v 102.68 166.82 -48.38
v 108.1 152.22 -40.26
v 110 135 -37.42
v 108.1 117.78 -40.26
v 102.68 103.18 -48.38
v 94.57 93.43 -60.51
v 85 90 -74.83
v 75.43 93.43 -89.15
v 67.32 103.18 -101.29
v 61.9 117.78 -109.4
v 60 135 -112.25
v 83.34 135 -124.72
v 84.65 152.22 -121.56
v 88.38 166.82 -112.55
v 93.97 176.57 -99.06
v 100.56 180 -83.15
v 107.15 176.57 -67.24
v 112.74 166.82 -53.75
v 116.47 152.22 -44.74
v 117.78 135 -41.57
v 116.47 117.78 -44.74
v 112.74 103.18 -53.75
v 107.15 93.43 -67.24
v 100.56 90 -83.15
v 93.97 93.43 -99.06
v 88.38 103.18 -112.55
v 84.65 117.78 -121.56
v 83.34 135 -124.72
v 108.66 135 -132.41
v 109.33 152.22 -129.05
v 111.23 166.82 -119.48
v 114.08 176.57 -105.16
v 117.44 180 -88.27
v 120.8 176.57 -71.38
v 123.65 166.82 -57.06
v 125.55 152.22 -47.49
v 126.22 135 -44.14
v 125.55 117.78 -47.49
v 123.65 103.18 -57.06
v 120.8 93.43 -71.38
v 117.44 90 -88.27
v 114.08 93.43 -105.16
v 111.23 103.18 -119.48
v 109.33 117.78 -129.05
v 108.66 135 -132.41
v 135 135 -135
v 135 152.22 -131.57
v 135 166.82 -121.82
v 135 176.57 -107.22
v 135 180 -90
v 135 176.57 -72.78
v 135 166.82 -58.18
v 135 152.22 -48.43
v 135 135 -45
v 135 117.78 -48.43
v 135 103.18 -58.18
v 135 93.43 -72.78
v 135 90 -90
v 135 93.43 -107.22
v 135 103.18 -121.82
v 135 117.78 -131.57
v 135 135 -135
v 161.34 135 -132.41
v 160.67 152.22 -129.05
v 158.77 166.82 -119.48
v 155.92 176.57 -105.16
v 152.56 180 -88.27
v 149.2 176.57 -71.38
v 146.35 166.82 -57.06
v 144.45 152.22 -47.49
v 143.78 135 -44.14
v 144.45 117.78 -47.49
v 146.35 103.18 -57.06
v 149.2 93.43 -71.38
v 152.56 90 -88.27
v 155.92 93.43 -105.16
v 158.77 103.18 -119.48
v 160.67 117.78 -129.05
v 161.34 135 -132.41
v 186.66 135 -124.72
v 185.35 152.22 -121.56
v 181.62 166.82 -112.55
v 176.03 176.57 -99.06
v 169.44 180 -83.15
v 162.85 176.57 -67.24
v 157.26 166.82 -53.75
v 153.53 152.22 -44.74
v 152.22 135 -41.57
v 153.53 117.78 -44.74
v 157.26 103.18 -53.75
v 162.85 93.43 -67.24
v 169.44 90 -83.15
v 176.03 93.43 -99.06
v 181.62 103.18 -112.55
v 185.35 117.78 -121.56
v 186.66 135 -124.72
v 210 135 -112.25
v 208.1 152.22 -109.4
v 202.68 166.82 -101.29
v 194.57 176.57 -89.15
v 185 180 -74.83
v 175.43 176.57 -60.51
v 167.32 166.82 -48.38
v 161.9 152.22 -40.26
v 160 135 -37.42
v 161.9 117.78 -40.26
v 167.32 103.18 -48.38
v 175.43 93.43 -60.51
v 185 90 -74.83
v 194.57 93.43 -89.15
v 202.68 103.18 -101.29
v 208.1 117.78 -109.4
v 210 135 -112.25
v 230.46 135 -95.46
v 228.04 152.22 -93.04
v 221.14 166.82 -86.14
v 210.82 176.57 -75.82
v 198.64 180 -63.64
v 186.46 176.57 -51.46
v 176.14 166.82 -41.14
v 169.24 152.22 -34.24
v 166.82 135 -31.82
v 169.24 117.78 -34.24
v 176.14 103.18 -41.14
v 186.46 93.43 -51.46
v 198.64 90 -63.64
v 210.82 93.43 -75.82
v 221.14 103.18 -86.14
v 228.04 117.78 -93.04
v 230.46 135 -95.46
v 247.25 135 -75
v 244.4 152.22 -73.1
v 236.29 166.82 -67.68
v 224.15 176.57 -59.57
v 209.83 180 -50
v 195.51 176.57 -40.43
v 183.38 166.82 -32.32
v 175.26 152.22 -26.9
v 172.42 135 -25
v 175.26 117.78 -26.9
v 183.38 103.18 -32.32
v 195.51 93.43 -40.43
v 209.83 90 -50
v 224.15 93.43 -59.57
v 236.29 103.18 -67.68
v 244.4 117.78 -73.1
v 247.25 135 -75
v 259.72 135 -51.66
v 256.56 152.22 -50.35
v 247.55 166.82 -46.62
v 234.06 176.57 -41.03
v 218.15 180 -34.44
v 202.24 176.57 -27.85
v 188.75 166.82 -22.26
v 179.74 152.22 -18.53
v 176.57 135 -17.22
v 179.74 117.78 -18.53
v 188.75 103.18 -22.26
v 202.24 93.43 -27.85
v 218.15 90 -34.44
v 234.06 93.43 -41.03
v 247.55 103.18 -46.62
v 256.56 117.78 -50.35
v 259.72 135 -51.66
v 267.41 135 -26.34
v 264.05 152.22 -25.67
v 254.48 166.82 -23.77
v 240.16 176.57 -20.92
v 223.27 180 -17.56
v 206.38 176.57 -14.2
v 192.06 166.82 -11.35
v 182.49 152.22 -9.45
v 179.14 135 -8.78
v 182.49 117.78 -9.45
v 192.06 103.18 -11.35
v 206.38 93.43 -14.2
v 223.27 90 -17.56
v 240.16 93.43 -20.92
v 254.48 103.18 -23.77
v 264.05 117.78 -25.67
v 267.41 135 -26.34
v 270 135 0
v 266.57 152.22 0
v 256.82 166.82 0
v 242.22 176.57 0
v 225 180 0
v 207.78 176.57 0
v 193.18 166.82 0
v 183.43 152.22 0
v 180 135 0
v 183.43 117.78 0
v 193.18 103.18 0
v 207.78 93.43 0
v 225 90 0
v 242.22 93.43 0
v 256.82 103.18 0
v 266.57 117.78 0
v 270 135 0
vn 1 0 0
vn 0.92 0.38 0
vn 0.71 0.71 0
vn 0.38 0.92 0
vn 0 1 0
vn -0.38 0.92 0
vn -0.71 0.71 0
vn -0.92 0.38 0
vn -1 0 0
vn -0.92 -0.38 0
vn -0.71 -0.71 0
vn -0.38 -0.92 0
vn 0 -1 0
vn 0.38 -0.92 0
vn 0.71 -0.71 0
vn 0.92 -0.38 0
vn 1 0 0
vn 0.98 0 0.2
vn 0.91 0.38 0.18
vn 0.69 0.71 0.14
vn 0.38 0.92 0.07
vn 0 1 0
vn -0.38 0.92 -0.07
vn -0.69 0.71 -0.14
vn -0.91 0.38 -0.18
vn -0.98 0 -0.2
vn -0.91 -0.38 -0.18
vn -0.69 -0.71 -0.14
vn -0.38 -0.92 -0.07
vn 0 -1 0
vn 0.38 -0.92 0.07
vn 0.69 -0.71 0.14
vn 0.91 -0.38 0.18
vn 0.98 0 0.2
vn 0.92 0 0.38
vn 0.85 0.38 0.35
vn 0.65 0.71 0.27
vn 0.35 0.92 0.15
vn 0 1 0
vn -0.35 0.92 -0.15
vn -0.65 0.71 -0.27
vn -0.85 0.38 -0.35
vn -0.92 0 -0.38
vn -0.85 -0.38 -0.35
vn -0.65 -0.71 -0.27
vn -0.35 -0.92 -0.15
vn 0 -1 0
vn 0.35 -0.92 0.15
vn 0.65 -0.71 0.27
vn 0.85 -0.38 0.35
vn 0.92 0 0.38
vn 0.83 0 0.56
vn 0.77 0.38 0.51
vn 0.59 0.71 0.39
vn 0.32 0.92 0.21
vn 0 1 0
vn -0.32 0.92 -0.21
vn -0.59 0.71 -0.39
vn -0.77 0.38 -0.51
vn -0.83 0 -0.56
vn -0.77 -0.38 -0.51
vn -0.59 -0.71 -0.39
vn -0.32 -0.92 -0.21
vn 0 -1 0
vn 0.32 -0.92 0.21
vn 0.59 -0.71 0.39
vn 0.77 -0.38 0.51
vn 0.83 0 0.56
vn 0.71 0 0.71
vn 0.65 0.38 0.65
vn 0.5 0.71 0.5
vn 0.27 0.92 0.27
vn 0 1 0
vn -0.27 0.92 -0.27
vn -0.5 0.71 -0.5
vn -0.65 0.38 -0.65
vn -0.71 0 -0.71
vn -0.65 -0.38 -0.65
vn -0.5 -0.71 -0.5
vn -0.27 -0.92 -0.27
vn 0 -1 0
vn 0.27 -0.92 0.27
vn 0.5 -0.71 0.5
vn 0.65 -0.38 0.65
vn 0.71 0 0.71
vn 0.56 0 0.83
vn 0.51 0.38 0.77
vn 0.39 0.71 0.59
vn 0.21 0.92 0.32
vn 0 1 0
vn -0.21 0.92 -0.32
vn -0.39 0.71 -0.59
vn -0.51 0.38 -0.77
vn -0.56 0 -0.83
vn -0.51 -0.38 -0.77
vn -0.39 -0.71 -0.59
vn -0.21 -0.92 -0.32
vn 0 -1 0
vn 0.21 -0.92 0.32
vn 0.39 -0.71 0.59
vn 0.51 -0.38 0.77
vn 0.56 0 0.83
vn 0.38 0 0.92
vn 0.35 0.38 0.85
vn 0.27 0.71 0.65
vn 0.15 0.92 0.35
vn 0 1 0
vn -0.15 0.92 -0.35
vn -0.27 0.71 -0.65
vn -0.35 0.38 -0.85
vn -0.38 0 -0.92
vn -0.35 -0.38 -0.85
vn -0.27 -0.71 -0.65
vn -0.15 -0.92 -0.35
vn 0 -1 0
vn 0.15 -0.92 0.35
vn 0.27 -0.71 0.65
vn 0.35 -0.38 0.85
vn 0.38 0 0.92
vn 0.2 0 0.98
vn 0.18 0.38 0.91
vn 0.14 0.71 0.69
vn 0.07 0.92 0.38
vn 0 1 0
vn -0.07 0.92 -0.38
vn -0.14 0.71 -0.69
vn -0.18 0.38 -0.91
vn -0.2 0 -0.98
vn -0.18 -0.38 -0.91
vn -0.14 -0.71 -0.69
vn -0.07 -0.92 -0.38
vn 0 -1 0
vn 0.07 -0.92 0.38
vn 0.14 -0.71 0.69
vn 0.18 -0.38 0.91
vn 0.2 0 0.98
vn 0 0 1
vn 0 0.38 0.92
vn 0 0.71 0.71
vn 0 0.92 0.38
vn 0 1 0
vn 0 0.92 -0.38
vn 0 0.71 -0.71
vn 0 0.38 -0.92
vn 0 0 -1
vn 0 -0.38 -0.92
vn 0 -0.71 -0.71
vn 0 -0.92 -0.38
vn 0 -1 0
vn 0 -0.92 0.38
vn 0 -0.71 0.71
vn 0 -0.38 0.92
vn 0 0 1
vn -0.2 0 0.98
vn -0.18 0.38 0.91
vn -0.14 0.71 0.69
vn -0.07 0.92 0.38
vn 0 1 0
vn 0.07 0.92 -0.38
vn 0.14 0.71 -0.69
vn 0.18 0.38 -0.91
vn 0.2 0 -0.98
vn 0.18 -0.38 -0.91
vn 0.14 -0.71 -0.69
vn 0.07 -0.92 -0.38
vn 0 -1 0
vn -0.07 -0.92 0.38
vn -0.14 -0.71 0.69
vn -0.18 -0.38 0.91
vn -0.2 0 0.98
vn -0.38 0 0.92
vn -0.35 0.38 0.85
vn -0.27 0.71 0.65
vn -0.15 0.92 0.35
vn 0 1 0
vn 0.15 0.92 -0.35
vn 0.27 0.71 -0.65
vn 0.35 0.38 -0.85
vn 0.38 0 -0.92
vn 0.35 -0.38 -0.85
vn 0.27 -0.71 -0.65
vn 0.15 -0.92 -0.35
vn 0 -1 0
vn -0.15 -0.92 0.35
vn -0.27 -0.71 0.65
vn -0.35 -0.38 0.85
vn -0.38 0 0.92
vn -0.56 0 0.83
vn -0.51 0.38 0.77
vn -0.39 0.71 0.59
vn -0.21 0.92 0.32
vn 0 1 0
vn 0.21 0.92 -0.32
vn 0.39 0.71 -0.59
vn 0.51 0.38 -0.77
vn 0.56 0 -0.83
vn 0.51 -0.38 -0.77
vn 0.39 -0.71 -0.59
vn 0.21 -0.92 -0.32
vn 0 -1 0
vn -0.21 -0.92 0.32
vn -0.39 -0.71 0.59
vn -0.51 -0.38 0.77
vn -0.56 0 0.83
vn -0.71 0 0.71
vn -0.65 0.38 0.65
vn -0.5 0.71 0.5
vn -0.27 0.92 0.27
vn 0 1 0
vn 0.27 0.92 -0.27
vn 0.5 0.71 -0.5
vn 0.65 0.38 -0.65
vn 0.71 0 -0.71
vn 0.65 -0.38 -0.65
vn 0.5 -0.71 -0.5
vn 0.27 -0.92 -0.27
vn 0 -1 0
vn -0.27 -0.92 0.27
vn -0.5 -0.71 0.5
vn -0.65 -0.38 0.65
vn -0.71 0 0.71
vn -0.83 0 0.56
vn -0.77 0.38 0.51
vn -0.59 0.71 0.39
vn -0.32 0.92 0.21
vn 0 1 0
vn 0.32 0.92 -0.21
vn 0.59 0.71 -0.39
vn 0.77 0.38 -0.51
vn 0.83 0 -0.56
vn 0.77 -0.38 -0.51
vn 0.59 -0.71 -0.39
vn 0.32 -0.92 -0.21
vn 0 -1 0
vn -0.32 -0.92 0.21
vn -0.59 -0.71 0.39
vn -0.77 -0.38 0.51
vn -0.83 0 0.56
vn -0.92 0 0.38
vn -0.85 0.38 0.35
vn -0.65 0.71 0.27
vn -0.35 0.92 0.15
vn 0 1 0
vn 0.35 0.92 -0.15
vn 0.65 0.71 -0.27
vn 0.85 0.38 -0.35
vn 0.92 0 -0.38
vn 0.85 -0.38 -0.35
vn 0.65 -0.71 -0.27
vn 0.35 -0.92 -0.15
vn 0 -1 0
vn -0.35 -0.92 0.15
vn -0.65 -0.71 0.27
vn -0.85 -0.38 0.35
vn -0.92 0 0.38
vn -0.98 0 0.2
vn -0.91 0.38 0.18
vn -0.69 0.71 0.14
vn -0.38 0.92 0.07
vn 0 1 0
vn 0.38 0.92 -0.07
vn 0.69 0.71 -0.14
vn 0.91 0.38 -0.18
vn 0.98 0 -0.2
vn 0.91 -0.38 -0.18
vn 0.69 -0.71 -0.14
vn 0.38 -0.92 -0.07
vn 0 -1 0
vn -0.38 -0.92 0.07
vn -0.69 -0.71 0.14
vn -0.91 -0.38 0.18
vn -0.98 0 0.2
vn -1 0 0
vn -0.92 0.38 0
vn -0.71 0.71 0
vn -0.38 0.92 0
vn 0 1 0
vn 0.38 0.92 0
vn 0.71 0.71 0
vn 0.92 0.38 0
vn 1 0 0
vn 0.92 -0.38 0
vn 0.71 -0.71 0
vn 0.38 -0.92 0
vn 0 -1 0
vn -0.38 -0.92 0
vn -0.71 -0.71 0
vn -0.92 -0.38 0
vn -1 0 0
vn -0.98 0 -0.2
vn -0.91 0.38 -0.18
vn -0.69 0.71 -0.14
vn -0.38 0.92 -0.07
vn 0 1 0
vn 0.38 0.92 0.07
vn 0.69 0.71 0.14
vn 0.91 0.38 0.18
vn 0.98 0 0.2
vn 0.91 -0.38 0.18
vn 0.69 -0.71 0.14
vn 0.38 -0.92 0.07
vn 0 -1 0
vn -0.38 -0.92 -0.07
vn -0.69 -0.71 -0.14
vn -0.91 -0.38 -0.18
vn -0.98 0 -0.2
vn -0.92 0 -0.38
vn -0.85 0.38 -0.35
vn -0.65 0.71 -0.27
vn -0.35 0.92 -0.15
vn 0 1 0
vn 0.35 0.92 0.15
vn 0.65 0.71 0.27
vn 0.85 0.38 0.35
vn 0.92 0 0.38
vn 0.85 -0.38 0.35
vn 0.65 -0.71 0.27
vn 0.35 -0.92 0.15
vn 0 -1 0
vn -0.35 -0.92 -0.15
vn -0.65 -0.71 -0.27
vn -0.85 -0.38 -0.35
vn -0.92 0 -0.38
vn -0.83 0 -0.56
vn -0.77 0.38 -0.51
vn -0.59 0.71 -0.39
vn -0.32 0.92 -0.21
vn 0 1 0
vn 0.32 0.92 0.21
vn 0.59 0.71 0.39
vn 0.77 0.38 0.51
vn 0.83 0 0.56
vn 0.77 -0.38 0.51
vn 0.59 -0.71 0.39
vn 0.32 -0.92 0.21
vn 0 -1 0
vn -0.32 -0.92 -0.21
vn -0.59 -0.71 -0.39
vn -0.77 -0.38 -0.51
vn -0.83 0 -0.56
vn -0.71 0 -0.71
vn -0.65 0.38 -0.65
vn -0.5 0.71 -0.5
vn -0.27 0.92 -0.27
vn 0 1 0
vn 0.27 0.92 0.27
vn 0.5 0.71 0.5
vn 0.65 0.38 0.65
vn 0.71 0 0.71
vn 0.65 -0.38 0.65
vn 0.5 -0.71 0.5
vn 0.27 -0.92 0.27
vn 0 -1 0
vn -0.27 -0.92 -0.27
vn -0.5 -0.71 -0.5
vn -0.65 -0.38 -0.65
vn -0.71 0 -0.71
vn -0.56 0 -0.83
vn -0.51 0.38 -0.77
vn -0.39 0.71 -0.59
vn -0.21 0.92 -0.32
vn 0 1 0
vn 0.21 0.92 0.32
vn 0.39 0.71 0.59
vn 0.51 0.38 0.77
vn 0.56 0 0.83
vn 0.51 -0.38 0.77
vn 0.39 -0.71 0.59
vn 0.21 -0.92 0.32
vn 0 -1 0
vn -0.21 -0.92 -0.32
vn -0.39 -0.71 -0.59
vn -0.51 -0.38 -0.77
vn -0.56 0 -0.83
vn -0.38 0 -0.92
vn -0.35 0.38 -0.85
vn -0.27 0.71 -0.65
vn -0.15 0.92 -0.35
vn 0 1 0
vn 0.15 0.92 0.35
vn 0.27 0.71 0.65
vn 0.35 0.38 0.85
vn 0.38 0 0.92
vn 0.35 -0.38 0.85
vn 0.27 -0.71 0.65
vn 0.15 -0.92 0.35
vn 0 -1 0
vn -0.15 -0.92 -0.35
vn -0.27 -0.71 -0.65
vn -0.35 -0.38 -0.85
vn -0.38 0 -0.92
vn -0.2 0 -0.98
vn -0.18 0.38 -0.91
vn -0.14 0.71 -0.69
vn -0.07 0.92 -0.38
vn 0 1 0
vn 0.07 0.92 0.38
vn 0.14 0.71 0.69
vn 0.18 0.38 0.91
vn 0.2 0 0.98
vn 0.18 -0.38 0.91
vn 0.14 -0.71 0.69
vn 0.07 -0.92 0.38
vn 0 -1 0
vn -0.07 -0.92 -0.38
vn -0.14 -0.71 -0.69
vn -0.18 -0.38 -0.91
vn -0.2 0 -0.98
vn 0 0 -1
vn 0 0.38 -0.92
vn 0 0.71 -0.71
vn 0 0.92 -0.38
vn 0 1 0
vn 0 0.92 0.38
vn 0 0.71 0.71
vn 0 0.38 0.92
vn 0 0 1
vn 0 -0.38 0.92
vn 0 -0.71 0.71
vn 0 -0.92 0.38
vn 0 -1 0
vn 0 -0.92 -0.38
vn 0 -0.71 -0.71
vn 0 -0.38 -0.92
vn 0 0 -1
vn 0.2 0 -0.98
vn 0.18 0.38 -0.91
vn 0.14 0.71 -0.69
vn 0.07 0.92 -0.38
vn 0 1 0
vn -0.07 0.92 0.38
vn -0.14 0.71 0.69
vn -0.18 0.38 0.91
vn -0.2 0 0.98
vn -0.18 -0.38 0.91
vn -0.14 -0.71 0.69
vn -0.07 -0.92 0.38
vn 0 -1 0
vn 0.07 -0.92 -0.38
vn 0.14 -0.71 -0.69
vn 0.18 -0.38 -0.91
vn 0.2 0 -0.98
vn 0.38 0 -0.92
vn 0.35 0.38 -0.85
vn 0.27 0.71 -0.65
vn 0.15 0.92 -0.35
vn 0 1 0
vn -0.15 0.92 0.35
vn -0.27 0.71 0.65
vn -0.35 0.38 0.85
vn -0.38 0 0.92
vn -0.35 -0.38 0.85
vn -0.27 -0.71 0.65
vn -0.15 -0.92 0.35
vn 0 -1 0
vn 0.15 -0.92 -0.35
vn 0.27 -0.71 -0.65
vn 0.35 -0.38 -0.85
vn 0.38 0 -0.92
vn 0.56 0 -0.83
vn 0.51 0.38 -0.77
vn 0.39 0.71 -0.59
vn 0.21 0.92 -0.32
vn 0 1 0
vn -0.21 0.92 0.32
vn -0.39 0.71 0.59
vn -0.51 0.38 0.77
vn -0.56 0 0.83
vn -0.51 -0.38 0.77
vn -0.39 -0.71 0.59
vn -0.21 -0.92 0.32
vn 0 -1 0
vn 0.21 -0.92 -0.32
vn 0.39 -0.71 -0.59
vn 0.51 -0.38 -0.77
vn 0.56 0 -0.83
vn 0.71 0 -0.71
vn 0.65 0.38 -0.65
vn 0.5 0.71 -0.5
vn 0.27 0.92 -0.27
vn 0 1 0
vn -0.27 0.92 0.27
vn -0.5 0.71 0.5
vn -0.65 0.38 0.65
vn -0.71 0 0.71
vn -0.65 -0.38 0.65
vn -0.5 -0.71 0.5
vn -0.27 -0.92 0.27
vn 0 -1 0
vn 0.27 -0.92 -0.27
vn 0.5 -0.71 -0.5
vn 0.65 -0.38 -0.65
vn 0.71 0 -0.71
vn 0.83 0 -0.56
vn 0.77 0.38 -0.51
vn 0.59 0.71 -0.39
vn 0.32 0.92 -0.21
vn 0 1 0
vn -0.32 0.92 0.21
vn -0.59 0.71 0.39
vn -0.77 0.38 0.51
vn -0.83 0 0.56
vn -0.77 -0.38 0.51
vn -0.59 -0.71 0.39
vn -0.32 -0.92 0.21
vn 0 -1 0
vn 0.32 -0.92 -0.21
vn 0.59 -0.71 -0.39
vn 0.77 -0.38 -0.51
vn 0.83 0 -0.56
vn 0.92 0 -0.38
vn 0.85 0.38 -0.35
vn 0.65 0.71 -0.27
vn 0.35 0.92 -0.15
vn 0 1 0
vn -0.35 0.92 0.15
vn -0.65 0.71 0.27
vn -0.85 0.38 0.35
vn -0.92 0 0.38
vn -0.85 -0.38 0.35
vn -0.65 -0.71 0.27
vn -0.35 -0.92 0.15
vn 0 -1 0
vn 0.35 -0.92 -0.15
vn 0.65 -0.71 -0.27
vn 0.85 -0.38 -0.35
vn 0.92 0 -0.38
vn 0.98 0 -0.2
vn 0.91 0.38 -0.18
vn 0.69 0.71 -0.14
vn 0.38 0.92 -0.07
vn 0 1 0
vn -0.38 0.92 0.07
vn -0.69 0.71 0.14
vn -0.91 0.38 0.18
vn -0.98 0 0.2
vn -0.91 -0.38 0.18
vn -0.69 -0.71 0.14
vn -0.38 -0.92 0.07
vn 0 -1 0
vn 0.38 -0.92 -0.07
vn 0.69 -0.71 -0.14
vn 0.91 -0.38 -0.18
vn 0.98 0 -0.2
vn 1 0 0
vn 0.92 0.38 0
vn 0.71 0.71 0
vn 0.38 0.92 0
vn 0 1 0
vn -0.38 0.92 0
vn -0.71 0.71 0
vn -0.92 0.38 0
vn -1 0 0
vn -0.92 -0.38 0
vn -0.71 -0.71 0
vn -0.38 -0.92 0
vn 0 -1 0
vn 0.38 -0.92 0
vn 0.71 -0.71 0
vn 0.92 -0.38 0
vn 1 0 0
f 1//1 2//2 19//19
f 1//1 19//19 18//18
f 2//2 3//3 20//20
f 2//2 20//20 19//19
f 3//3 4//4 21//21
f 3//3 21//21 20//20
f 4//4 5//5 22//22
f 4//4 22//22 21//21
f 5//5 6//6 23//23
f 5//5 23//23 22//22
f 6//6 7//7 24//24
f 6//6 24//24 23//23
f 7//7 8//8 25//25
f 7//7 25//25 24//24
f 8//8 9//9 26//26
f 8//8 26//26 25//25
f 9//9 10//10 27//27
f 9//9 27//27 26//26
f 10//10 11//11 28//28
f 10//10 28//28 27//27
f 11//11 12//12 29//29
f 11//11 29//29 28//28
f 12//12 13//13 30//30
f 12//12 30//30 29//29
f 13//13 14//14 31//31
f 13//13 31//31 30//30
f 14//14 15//15 32//32
f 14//14 32//32 31//31
f 15//15 16//16 33//33
f 15//15 33//33 32//32
f 16//16 17//17 34//34
f 16//16 34//34 33//33
f 18//18 19//19 36//36
f 18//18 36//36 35//35
f 19//19 20//20 37//37
f 19//19 37//37 36//36
f 20//20 21//21 38//38
f 20//20 38//38 37//37
f 21//21 22//22 39//39
f 21//21 39//39 38//38
f 22//22 23//23 40//40
f 22//22 40//40 39//39
f 23//23 24//24 41//41
f 23//23 41//41 40//40
f 24//24 25//25 42//42
f 24//24 42//42 41//41
f 25//25 26//26 43//43
f 25//25 43//43 42//42
f 26//26 27//27 44//44
f 26//26 44//44 43//43
f 27//27 28//28 45//45
f 27//27 45//45 44//44
f 28//28 29//29 46//46
f 28//28 46//46 45//45
f 29//29 30//30 47//47
f 29//29 47//47 46//46
f 30//30 31//31 48//48
f 30//30 48//48 47//47
f 31//31 32//32 49//49
f 31//31 49//49 48//48
f 32//32 33//33 50//50
f 32//32 50//50 49//49
f 33//33 34//34 51//51
f 33//33 51//51 50//50
f 35//35 36//36 53//53
f 35//35 53//53 52//52
f 36//36 37//37 54//54
f 36//36 54//54 53//53
f 37//37 38//38 55//55
f 37//37 55//55 54//54
f 38//38 39//39 56//56
f 38//38 56//56 55//55
f 39//39 40//40 57//57
f 39//39 57//57 56//56
f 40//40 41//41 58//58
f 40//40 58//58 57//57
f 41//41 42//42 59//59
f 41//41 59//59 58//58
f 42//42 43//43 60//60
f 42//42 60//60 59//59
f 43//43 44//44 61//61
f 43//43 61//61 60//60
f 44//44 45//45 62//62
f 44//44 62//62 61//61
f 45//45 46//46 63//63
f 45//45 63//63 62//62
f 46//46 47//47 64//64
f 46//46 64//64 63//63
f 47//47 48//48 65//65
f 47//47 65//65 64//64
f 48//48 49//49 66//66
f 48//48 66//66 65//65
f 49//49 50//50 67//67
f 49//49 67//67 66//66
f 50//50 51//51 68//68
f 50//50 68//68 67//67
f 52//52 53//53 70//70
f 52//52 70//70 69//69
f 53//53 54//54 71//71
f 53//53 71//71 70//70
f 54//54 55//55 72//72
f 54//54 72//72 71//71
f 55//55 56//56 73//73
f 55//55 73//73 72//72
f 56//56 57//57 74//74
f 56//56 74//74 73//73
f 57//57 58//58 75//75
f 57//57 75//75 74//74
f 58//58 59//59 76//76
f 58//58 76//76 75//75
f 59//59 60//60 77//77
f 59//59 77//77 76//76
f 60//60 61//61 78//78
f 60//60 78//78 77//77
f 61//61 62//62 79//79
f 61//61 79//79 78//78
f 62//62 63//63 80//80
f 62//62 80//80 79//79
f 63//63 64//64 81//81
f 63//63 81//81 80//80
f 64//64 65//65 82//82
f 64//64 82//82 81//81
f 65//65 66//66 83//83
f 65//65 83//83 82//82
f 66//66 67//67 84//84
f 66//66 84//84 83//83
f 67//67 68//68 85//85
f 67//67 85//85 84//84
f 69//69 70//70 87//87
f 69//69 87//87 86//86
f 70//70 71//71 88//88
f 70//70 88//88 87//87
f 71//71 72//72 89//89
f 71//71 89//89 88//88
f 72//72 73//73 90//90
f 72//72 90//90 89//89
f 73//73 74//74 91//91
f 73//73 91//91 90//90
f 74//74 75//75 92//92
f 74//74 92//92 91//91
f 75//75 76//76 93//93
f 75//75 93//93 92//92
f 76//76 77//77 94//94
f 76//76 94//94 93//93
f 77//77 78//78 95//95
f 77//77 95//95 94//94
f 78//78 79//79 96//96
f 78//78 96//96 95//95
f 79//79 80//80 97//97
f 79//79 97//97 96//96
f 80//80 81//81 98//98
f 80//80 98//98 97//97
f 81//81 82//82 99//99
f 81//81 99//99 98//98
f 82//82 83//83 100//100
f 82//82 100//100 99//99
f 83//83 84//84 101//101
f 83//83 101//101 100//100
f 84//84 85//85 102//102
f 84//84 102//102 101//101
f 86//86 87//87 104//104
f 86//86 104//104 103//103
f 87//87 88//88 105//105
f 87//87 105//105 104//104
f 88//88 89//89 106//106
f 88//88 106//106 105//105
f 89//89 90//90 107//107
f 89//89 107//107 106//106
f 90//90 91//91 108//108
f 90//90 108//108 107//107
f 91//91 92//92 109//109
f 91//91 109//109 108//108
f 92//92 93//93 110//110
f 92//92 110//110 109//109
f 93//93 94//94 111//111
f 93//93 111//111 110//110
f 94//94 95//95 112//112
f 94//94 112//112 111//111
f 95//95 96//96 113//113
f 95//95 113//113 112//112
f 96//96 97//97 114//114
f 96//96 114//114 113//113
f 97//97 98//98 115//115
f 97//97 115//115 114//114
f 98//98 99//99 116//116
f 98//98 116//116 115//115
f 99//99 100//100 117//117
f 99//99 117//117 116//116
f 100//100 101//101 118//118
f 100//100 118//118 117//117
f 101//101 102//102 119//119
f 101//101 119//119 118//118
f 103//103 104//104 121//121
f 103//103 121//121 120//120
f 104//104 105//105 122//122
f 104//104 122//122 121//121
f 105//105 106//106 123//123
f 105//105 123//123 122//122
f 106//106 107//107 124//124
f 106//106 124//124 123//123
f 107//107 108//108 125//125
f 107//107 125//125 124//124
f 108//108 109//109 126//126
f 108//108 126//126 125//125
f 109//109 110//110 127//127
f 109//109 127//127 126//126
f 110//110 111//111 128//128
f 110//110 128//128 127//127
f 111//111 112//112 129//129
f 111//111 129//129 128//128
f 112//112 113//113 130//130
f 112//112 130//130 129//129
f 113//113 114//114 131//131
f 113//113 131//131 130//130
f 114//114 115//115 132//132
f 114//114 132//132 131//131
f 115//115 116//116 133//133
f 115//115 133//133 132//132
f 116//116 117//117 134//134
f 116//116 134//134 133//133
f 117//117 118//118 135//135
f 117//117 135//135 134//134
f 118//118 119//119 136//136
f 118//118 136//136 135//135
f 120//120 121//121 138//138
f 120//120 138//138 137//137
f 121//121 122//122 139//139
f 121//121 139//139 138//138
f 122//122 123//123 140//140
f 122//122 140//140 139//139
f 123//123 124//124 141//141
f 123//123 141//141 140//140
f 124//124 125//125 142//142
f 124//124 142//142 141//141
f 125//125 126//126 143//143
f 125//125 143//143 142//142
f 126//126 127//127 144//144
f 126//126 144//144 143//143
f 127//127 128//128 145//145
f 127//127 145//145 144//144
f 128//128 129//129 146//146
f 128//128 146//146 145//145
f 129//129 130//130 147//147
f 129//129 147//147 146//146
f 130//130 131//131 148//148
f 130//130 148//148 147//147
f 131//131 132//132 149//149
f 131//131 149//149 148//148
f 132//132 133//133 150//150
f 132//132 150//150 149//149
f 133//133 134//134 151//151
f 133//133 151//151 150//150
f 134//134 135//135 152//152
f 134//134 152//152 151//151
f 135//135 136//136 153//153
f 135//135 153//153 152//152
f 137//137 138//138 155//155
f 137//137 155//155 154//154
f 138//138 139//139 156//156
f 138//138 156//156 155//155
f 139//139 140//140 157//157
f 139//139 157//157 156//156
f 140//140 141//141 158//158
f 140//140 158//158 157//157
f 141//141 142//142 159//159
f 141//141 159//159 158//158
f 142//142 143//143 160//160
f 142//142 160//160 159//159
f 143//143 144//144 161//161
f 143//143 161//161 160//160
f 144//144 145//145 162//162
f 144//144 162//162 161//161
f 145//145 146//146 163//163
f 145//145 163//163 162//162
f 146//146 147//147 164//164
f 146//146 164//164 163//163
f 147//147 148//148 165//165
f 147//147 165//165 164//164
f 148//148 149//149 166//166
f 148//148 166//166 165//165
f 149//149 150//150 167//167
f 149//149 167//167 166//166
f 150//150 151//151 168//168
f 150//150 168//168 167//167
f 151//151 152//152 169//169
f 151//151 169//169 168//168
f 152//152 153//153 170//170
f 152//152 170//170 169//169
f 154//154 155//155 172//172
f 154//154 172//172 171//171
f 155//155 156//156 173//173
f 155//155 173//173 172//172
f 156//156 157//157 174//174
f 156//156 174//174 173//173
f 157//157 158//158 175//175
f 157//157 175//175 174//174
f 158//158 159//159 176//176
f 158//158 176//176 175//175
f 159//159 160//160 177//177
f 159//159 177//177 176//176
f 160//160 161//161 178//178
f 160//160 178//178 177//177
f 161//161 162//162 179//179
f 161//161 179//179 178//178
f 162//162 163//163 180//180
f 162//162 180//180 179//179
f 163//163 164//164 181//181
f 163//163 181//181 180//180
f 164//164 165//165 182//182
f 164//164 182//182 181//181
f 165//165 166//166 183//183
f 165//165 183//183 182//182
f 166//166 167//167 184//184
f 166//166 184//184 183//183
f 167//167 168//168 185//185
f 167//167 185//185 184//184
f 168//168 169//169 186//186
f 168//168 186//186 185//185
f 169//169 170//170 187//187
f 169//169 187//187 186//186
f 171//171 172//172 189//189
f 171//171 189//189 188//188
f 172//172 173//173 190//190
f 172//172 190//190 189//189
f 173//173 174//174 191//191
f 173//173 191//191 190//190
f 174//174 175//175 192//192
f 174//174 192//192 191//191
f 175//175 176//176 193//193
f 175//175 193//193 192//192
f 176//176 177//177 194//194
f 176//176 194//194 193//193
f 177//177 178//178 195//195
f 177//177 195//195 194//194
f 178//178 179//179 196//196
f 178//178 196//196 195//195
f 179//179 180//180 197//197
f 179//179 197//197 196//196
f 180//180 181//181 198//198
f 180//180 198//198 197//197
f 181//181 182//182 199//199
f 181//181 199//199 198//198
f 182//182 183//183 200//200
f 182//182 200//200 199//199
f 183//183 184//184 201//201
f 183//183 201//201 200//200
f 184//184 185//185 202//202
f 184//184 202//202 201//201
f 185//185 186//186 203//203
f 185//185 203//203 202//202
f 186//186 187//187 204//204
f 186//186 204//204 203//203
f 188//188 189//189 206//206
f 188//188 206//206 205//205
f 189//189 190//190 207//207
f 189//189 207//207 206//206
f 190//190 191//191 208//208
f 190//190 208//208 207//207
f 191//191 192//192 209//209
f 191//191 209//209 208//208
f 192//192 193//193 210//210
f 192//192 210//210 209//209
f 193//193 194//194 211//211
f 193//193 211//211 210//210
f 194//194 195//195 212//212
f 194//194 212//212 211//211
f 195//195 196//196 213//213
f 195//195 213//213 212//212
f 196//196 197//197 214//214
f 196//196 214//214 213//213
f 197//197 198//198 215//215
f 197//197 215//215 214//214
f 198//198 199//199 216//216
f 198//198 216//216 215//215
f 199//199 200//200 217//217
f 199//199 217//217 216//216
f 200//200 201//201 218//218
f 200//200 218//218 217//217
f 201//201 202//202 219//219
f 201//201 219//219 218//218
f 202//202 203//203 220//220
f 202//202 220//220 219//219
f 203//203 204//204 221//221
f 203//203 221//221 220//220
f 205//205 206//206 223//223
f 205//205 223//223 222//222
f 206//206 207//207 224//224
f 206//206 224//224 223//223
f 207//207 208//208 225//225
f 207//207 225//225 224//224
f 208//208 209//209 226//226
f 208//208 226//226 225//225
f 209//209 210//210 227//227
f 209//209 227//227 226//226
f 210//210 211//211 228//228
f 210//210 228//228 227//227
f 211//211 212//212 229//229
f 211//211 229//229 228//228
f 212//212 213//213 230//230
f 212//212 230//230 229//229
f 213//213 214//214 231//231
f 213//213 231//231 230//230
f 214//214 215//215 232//232
f 214//214 232//232 231//231
f 215//215 216//216 233//233
f 215//215 233//233 232//232
f 216//216 217//217 234//234
f 216//216 234//234 233//233
f 217//217 218//218 235//235
f 217//217 235//235 234//234
f 218//218 219//219 236//236
f 218//218 236//236 235//235
f 219//219 220//220 237//237
f 219//219 237//237 236//236
f 220//220 221//221 238//238
f 220//220 238//238 237//237
f 222//222 223//223 240//240
f 222//222 240//240 239//239
f 223//223 224//224 241//241
f 223//223 241//241 240//240
f 224//224 225//225 242//242
f 224//224 242//242 241//241
f 225//225 226//226 243//243
f 225//225 243//243 242//242
f 226//226 227//227 244//244
f 226//226 244//244 243//243
f 227//227 228//228 245//245
f 227//227 245//245 244//244
f 228//228 229//229 246//246
f 228//228 246//246 245//245
f 229//229 230//230 247//247
f 229//229 247//247 246//246
f 230//230 231//231 248//248
f 230//230 248//248 247//247
f 231//231 232//232 249//249
f 231//231 249//249 248//248
f 232//232 233//233 250//250
f 232//232 250//250 249//249
f 233//233 234//234 251//251
f 233//233 251//251 250//250
f 234//234 235//235 252//252
f 234//234 252//252 251//251
f 235//235 236//236 253//253
f 235//235 253//253 252//252
f 236//236 237//237 254//254
f 236//236 254//254 253//253
f 237//237 238//238 255//255
f 237//237 255//255 254//254
f 239//239 240//240 257//257
f 239//239 257//257 256//256
f 240//240 241//241 258//258
f 240//240 258//258 257//257
f 241//241 242//242 259//259
f 241//241 259//259 258//258
f 242//242 243//243 260//260
f 242//242 260//260 259//259
f 243//243 244//244 261//261
f 243//243 261//261 260//260
f 244//244 245//245 262//262
f 244//244 262//262 261//261
f 245//245 246//246 263//263
f 245//245 263//263 262//262
f 246//246 247//247 264//264
f 246//246 264//264 263//263
f 247//247 248//248 265//265
f 247//247 265//265 264//264
f 248//248 249//249 266//266
f 248//248 266//266 265//265
f 249//249 250//250 267//267
f 249//249 267//267 266//266
f 250//250 251//251 268//268
f 250//250 268//268 267//267
f 251//251 252//252 269//269
f 251//251 269//269 268//268
f 252//252 253//253 270//270
f 252//252 270//270 269//269
f 253//253 254//254 271//271
f 253//253 271//271 270//270
f 254//254 255//255 272//272
f 254//254 272//272 271//271
f 256//256 257//257 274//274
f 256//256 274//274 273//273
f 257//257 258//258 275//275
f 257//257 275//275 274//274
f 258//258 259//259 276//276
f 258//258 276//276 275//275
f 259//259 260//260 277//277
f 259//259 277//277 276//276
f 260//260 261//261 278//278
f 260//260 278//278 277//277
f 261//261 262//262 279//279
f 261//261 279//279 278//278
f 262//262 263//263 280//280
f 262//262 280//280 279//279
f 263//263 264//264 281//281
f 263//263 281//281 280//280
f 264//264 265//265 282//282
f 264//264 282//282 281//281
f 265//265 266//266 283//283
f 265//265 283//283 282//282
f 266//266 267//267 284//284
f 266//266 284//284 283//283
f 267//267 268//268 285//285
f 267//267 285//285 284//284
f 268//268 269//269 286//286
f 268//268 286//286 285//285
f 269//269 270//270 287//287
f 269//269 287//287 286//286
f 270//270 271//271 288//288
f 270//270 288//288 287//287
f 271//271 272//272 289//289
f 271//271 289//289 288//288
f 273//273 274//274 291//291
f 273//273 291//291 290//290
f 274//274 275//275 292//292
f 274//274 292//292 291//291
f 275//275 276//276 293//293
f 275//275 293//293 292//292
f 276//276 277//277 294//294
f 276//276 294//294 293//293
f 277//277 278//278 295//295
f 277//277 295//295 294//294
f 278//278 279//279 296//296
f 278//278 296//296 295//295
f 279//279 280//280 297//297
f 279//279 297//297 296//296
f 280//280 281//281 298//298
f 280//280 298//298 297//297
f 281//281 282//282 299//299
f 281//281 299//299 298//298
f 282//282 283//283 300//300
f 282//282 300//300 299//299
f 283//283 284//284 301//301
f 283//283 301//301 300//300
f 284//284 285//285 302//302
f 284//284 302//302 301//301
f 285//285 286//286 303//303
f 285//285 303//303 302//302
f 286//286 287//287 304//304
f 286//286 304//304 303//303
f 287//287 288//288 305//305
f 287//287 305//305 304//304
f 288//288 289//289 306//306
f 288//288 306//306 305//305
f 290//290 291//291 308//308
f 290//290 308//308 307//307
f 291//291 292//292 309//309
f 291//291 309//309 308//308
f 292//292 293//293 310//310
f 292//292 310//310 309//309
f 293//293 294//294 311//311
f 293//293 311//311 310//310
f 294//294 295//295 312//312
f 294//294 312//312 311//311
f 295//295 296//296 313//313
f 295//295 313//313 312//312
f 296//296 297//297 314//314
f 296//296 314//314 313//313
f 297//297 298//298 315//315
f 297//297 315//315 314//314
f 298//298 299//299 316//316
f 298//298 316//316 315//315
f 299//299 300//300 317//317
f 299//299 317//317 316//316
f 300//300 301//301 318//318
f 300//300 318//318 317//317
f 301//301 302//302 319//319
f 301//301 319//319 318//318
f 302//302 303//303 320//320
f 302//302 320//320 319//319
f 303//303 304//304 321//321
f 303//303 321//321 320//320
f 304//304 305//305 322//322
f 304//304 322//322 321//321
f 305//305 306//306 323//323
f 305//305 323//323 322//322
f 307//307 308//308 325//325
f 307//307 325//325 324//324
f 308//308 309//309 326//326
f 308//308 326//326 325//325
f 309//309 310//310 327//327
f 309//309 327//327 326//326
f 310//310 311//311 328//328
f 310//310 328//328 327//327
f 311//311 312//312 329//329
f 311//311 329//329 328//328
f 312//312 313//313 330//330
f 312//312 330//330 329//329
f 313//313 314//314 331//331
f 313//313 331//331 330//330
f 314//314 315//315 332//332
f 314//314 332//332 331//331
f 315//315 316//316 333//333
f 315//315 333//333 332//332
f 316//316 317//317 334//334
f 316//316 334//334 333//333
f 317//317 318//318 335//335
f 317//317 335//335 334//334
f 318//318 319//319 336//336
f 318//318 336//336 335//335
f 319//319 320//320 337//337
f 319//319 337//337 336//336
f 320//320 321//321 338//338
f 320//320 338//338 337//337
f 321//321 322//322 339//339
f 321//321 339//339 338//338
f 322//322 323//323 340//340
f 322//322 340//340 339//339
f 324//324 325//325 342//342
f 324//324 342//342 341//341
f 325//325 326//326 343//343
f 325//325 343//343 342//342
f 326//326 327//327 344//344
f 326//326 344//344 343//343
f 327//327 328//328 345//345
f 327//327 345//345 344//344
f 328//328 329//329 346//346
f 328//328 346//346 345//345
f 329//329 330//330 347//347
f 329//329 347//347 346//346
f 330//330 331//331 348//348
f 330//330 348//348 347//347
f 331//331 332//332 349//349
f 331//331 349//349 348//348
f 332//332 333//333 350//350
f 332//332 350//350 349//349
f 333//333 334//334 351//351
f 333//333 351//351 350//350
f 334//334 335//335 352//352
f 334//334 352//352 351//351
f 335//335 336//336 353//353
f 335//335 353//353 352//352
f 336//336 337//337 354//354
f 336//336 354//354 353//353
f 337//337 338//338 355//355
f 337//337 355//355 354//354
f 338//338 339//339 356//356
f 338//338 356//356 355//355
f 339//339 340//340 357//357
f 339//339 357//357 356//356
f 341//341 342//342 359//359
f 341//341 359//359 358//358
f 342//342 343//343 360//360
f 342//342 360//360 359//359
f 343//343 344//344 361//361
f 343//343 361//361 360//360
f 344//344 345//345 362//362
f 344//344 362//362 361//361
f 345//345 346//346 363//363
f 345//345 363//363 362//362
f 346//346 347//347 364//364
f 346//346 364//364 363//363
f 347//347 348//348 365//365
f 347//347 365//365 364//364
f 348//348 349//349 366//366
f 348//348 366//366 365//365
f 349//349 350//350 367//367
f 349//349 367//367 366//366
f 350//350 351//351 368//368
f 350//350 368//368 367//367
f 351//351 352//352 369//369
f 351//351 369//369 368//368
f 352//352 353//353 370//370
f 352//352 370//370 369//369
f 353//353 354//354 371//371
f 353//353 371//371 370//370
f 354//354 355//355 372//372
f 354//354 372//372 371//371
f 355//355 356//356 373//373
f 355//355 373//373 372//372
f 356//356 357//357 374//374
f 356//356 374//374 373//373
f 358//358 359//359 376//376
f 358//358 376//376 375//375
f 359//359 360//360 377//377
f 359//359 377//377 376//376
f 360//360 361//361 378//378
f 360//360 378//378 377//377
f 361//361 362//362 379//379
f 361//361 379//379 378//378
f 362//362 363//363 380//380
f 362//362 380//380 379//379
f 363//363 364//364 381//381
f 363//363 381//381 380//380
f 364//364 365//365 382//382
f 364//364 382//382 381//381
f 365//365 366//366 383//383
f 365//365 383//383 382//382
f 366//366 367//367 384//384
f 366//366 384//384 383//383
f 367//367 368//368 385//385
f 367//367 385//385 384//384
f 368//368 369//369 386//386
f 368//368 386//386 385//385
f 369//369 370//370 387//387
f 369//369 387//387 386//386
f 370//370 371//371 388//388
f 370//370 388//388 387//387
f 371//371 372//372 389//389
f 371//371 389//389 388//388
f 372//372 373//373 390//390
f 372//372 390//390 389//389
f 373//373 374//374 391//391
f 373//373 391//391 390//390
f 375//375 376//376 393//393
f 375//375 393//393 392//392
f 376//376 377//377 394//394
f 376//376 394//394 393//393
f 377//377 378//378 395//395
f 377//377 395//395 394//394
f 378//378 379//379 396//396
f 378//378 396//396 395//395
f 379//379 380//380 397//397
f 379//379 397//397 396//396
f 380//380 381//381 398//398
f 380//380 398//398 397//397
f 381//381 382//382 399//399
f 381//381 399//399 398//398
f 382//382 383//383 400//400
f 382//382 400//400 399//399
f 383//383 384//384 401//401
f 383//383 401//401 400//400
f 384//384 385//385 402//402
f 384//384 402//402 401//401
f 385//385 386//386 403//403
f 385//385 403//403 402//402
f 386//386 387//387 404//404
f 386//386 404//404 403//403
f 387//387 388//388 405//405
f 387//387 405//405 404//404
f 388//388 389//389 406//406
f 388//388 406//406 405//405
f 389//389 390//390 407//407
f 389//389 407//407 406//406
f 390//390 391//391 408//408
f 390//390 408//408 407//407
f 392//392 393//393 410//410
f 392//392 410//410 409//409
f 393//393 394//394 411//411
f 393//393 411//411 410//410
f 394//394 395//395 412//412
f 394//394 412//412 411//411
f 395//395 396//396 413//413
f 395//395 413//413 412//412
f 396//396 397//397 414//414
f 396//396 414//414 413//413
f 397//397 398//398 415//415
f 397//397 415//415 414//414
f 398//398 399//399 416//416
f 398//398 416//416 415//415
f 399//399 400//400 417//417
f 399//399 417//417 416//416
f 400//400 401//401 418//418
f 400//400 418//418 417//417
f 401//401 402//402 419//419
f 401//401 419//419 418//418
f 402//402 403//403 420//420
f 402//402 420//420 419//419
f 403//403 404//404 421//421
f 403//403 421//421 420//420
f 404//404 405//405 422//422
f 404//404 422//422 421//421
f 405//405 406//406 423//423
f 405//405 423//423 422//422
f 406//406 407//407 424//424
f 406//406 424//424 423//423
f 407//407 408//408 425//425
f 407//407 425//425 424//424
f 409//409 410//410 427//427
f 409//409 427//427 426//426
f 410//410 411//411 428//428
f 410//410 428//428 427//427
f 411//411 412//412 429//429
f 411//411 429//429 428//428
f 412//412 413//413 430//430
f 412//412 430//430 429//429
f 413//413 414//414 431//431
f 413//413 431//431 430//430
f 414//414 415//415 432//432
f 414//414 432//432 431//431
f 415//415 416//416 433//433
f 415//415 433//433 432//432
f 416//416 417//417 434//434
f 416//416 434//434 433//433
f 417//417 418//418 435//435
f 417//417 435//435 434//434
f 418//418 419//419 436//436
f 418//418 436//436 435//435
f 419//419 420//420 437//437
f 419//419 437//437 436//436
f 420//420 421//421 438//438
f 420//420 438//438 437//437
f 421//421 422//422 439//439
f 421//421 439//439 438//438
f 422//422 423//423 440//440
f 422//422 440//440 439//439
f 423//423 424//424 441//441
f 423//423 441//441 440//440
f 424//424 425//425 442//442
f 424//424 442//442 441//441
f 426//426 427//427 444//444
f 426//426 444//444 443//443
f 427//427 428//428 445//445
f 427//427 445//445 444//444
f 428//428 429//429 446//446
f 428//428 446//446 445//445
f 429//429 430//430 447//447
f 429//429 447//447 446//446
f 430//430 431//431 448//448
f 430//430 448//448 447//447
f 431//431 432//432 449//449
f 431//431 449//449 448//448
f 432//432 433//433 450//450
f 432//432 450//450 449//449
f 433//433 434//434 451//451
f 433//433 451//451 450//450
f 434//434 435//435 452//452
f 434//434 452//452 451//451
f 435//435 436//436 453//453
f 435//435 453//453 452//452
f 436//436 437//437 454//454
f 436//436 454//454 453//453
f 437//437 438//438 455//455
f 437//437 455//455 454//454
f 438//438 439//439 456//456
f 438//438 456//456 455//455
f 439//439 440//440 457//457
f 439//439 457//457 456//456
f 440//440 441//441 458//458
f 440//440 458//458 457//457
f 441//441 442//442 459//459
f 441//441 459//459 458//458
f 443//443 444//444 461//461
f 443//443 461//461 460//460
f 444//444 445//445 462//462
f 444//444 462//462 461//461
f 445//445 446//446 463//463
f 445//445 463//463 462//462
f 446//446 447//447 464//464
f 446//446 464//464 463//463
f 447//447 448//448 465//465
f 447//447 465//465 464//464
f 448//448 449//449 466//466
f 448//448 466//466 465//465
f 449//449 450//450 467//467
f 449//449 467//467 466//466
f 450//450 451//451 468//468
f 450//450 468//468 467//467
f 451//451 452//452 469//469
f 451//451 469//469 468//468
f 452//452 453//453 470//470
f 452//452 470//470 469//469
f 453//453 454//454 471//471
f 453//453 471//471 470//470
f 454//454 455//455 472//472
f 454//454 472//472 471//471
f 455//455 456//456 473//473
f 455//455 473//473 472//472
f 456//456 457//457 474//474
f 456//456 474//474 473//473
f 457//457 458//458 475//475
f 457//457 475//475 474//474
f 458//458 459//459 476//476
f 458//458 476//476 475//475
f 460//460 461//461 478//478
f 460//460 478//478 477//477
f 461//461 462//462 479//479
f 461//461 479//479 478//478
f 462//462 463//463 480//480
f 462//462 480//480 479//479
f 463//463 464//464 481//481
f 463//463 481//481 480//480
f 464//464 465//465 482//482
f 464//464 482//482 481//481
f 465//465 466//466 483//483
f 465//465 483//483 482//482
f 466//466 467//467 484//484
f 466//466 484//484 483//483
f 467//467 468//468 485//485
f 467//467 485//485 484//484
f 468//468 469//469 486//486
f 468//468 486//486 485//485
f 469//469 470//470 487//487
f 469//469 487//487 486//486
f 470//470 471//471 488//488
f 470//470 488//488 487//487
f 471//471 472//472 489//489
f 471//471 489//489 488//488
f 472//472 473//473 490//490
f 472//472 490//490 489//489
f 473//473 474//474 491//491
f 473//473 491//491 490//490
f 474//474 475//475 492//492
f 474//474 492//492 491//491
f 475//475 476//476 493//493
f 475//475 493//493 492//492
f 477//477 478//478 495//495
f 477//477 495//495 494//494
f 478//478 479//479 496//496
f 478//478 496//496 495//495
f 479//479 480//480 497//497
f 479//479 497//497 496//496
f 480//480 481//481 498//498
f 480//480 498//498 497//497
f 481//481 482//482 499//499
f 481//481 499//499 498//498
f 482//482 483//483 500//500
f 482//482 500//500 499//499
f 483//483 484//484 501//501
f 483//483 501//501 500//500
f 484//484 485//485 502//502
f 484//484 502//502 501//501
f 485//485 486//486 503//503
f 485//485 503//503 502//502
f 486//486 487//487 504//504
f 486//486 504//504 503//503
f 487//487 488//488 505//505
f 487//487 505//505 504//504
f 488//488 489//489 506//506
f 488//488 506//506 505//505
f 489//489 490//490 507//507
f 489//489 507//507 506//506
f 490//490 491//491 508//508
f 490//490 508//508 507//507
f 491//491 492//492 509//509
f 491//491 509//509 508//508
f 492//492 493//493 510//510
f 492//492 510//510 509//509
f 494//494 495//495 512//512
f 494//494 512//512 511//511
f 495//495 496//496 513//513
f 495//495 513//513 512//512
f 496//496 497//497 514//514
f 496//496 514//514 513//513
f 497//497 498//498 515//515
f 497//497 515//515 514//514
f 498//498 499//499 516//516
f 498//498 516//516 515//515
f 499//499 500//500 517//517
f 499//499 517//517 516//516
f 500//500 501//501 518//518
f 500//500 518//518 517//517
f 501//501 502//502 519//519
f 501//501 519//519 518//518
f 502//502 503//503 520//520
f 502//502 520//520 519//519
f 503//503 504//504 521//521
f 503//503 521//521 520//520
f 504//504 505//505 522//522
f 504//504 522//522 521//521
f 505//505 506//506 523//523
f 505//505 523//523 522//522
f 506//506 507//507 524//524
f 506//506 524//524 523//523
f 507//507 508//508 525//525
f 507//507 525//525 524//524
f 508//508 509//509 526//526
f 508//508 526//526 525//525
f 509//509 510//510 527//527
f 509//509 527//527 526//526
f 511//511 512//512 529//529
f 511//511 529//529 528//528
f 512//512 513//513 530//530
f 512//512 530//530 529//529
f 513//513 514//514 531//531
f 513//513 531//531 530//530
f 514//514 515//515 532//532
f 514//514 532//532 531//531
f 515//515 516//516 533//533
f 515//515 533//533 532//532
f 516//516 517//517 534//534
f 516//516 534//534 533//533
f 517//517 518//518 535//535
f 517//517 535//535 534//534
f 518//518 519//519 536//536
f 518//518 536//536 535//535
f 519//519 520//520 537//537
f 519//519 537//537 536//536
f 520//520 521//521 538//538
f 520//520 538//538 537//537
f 521//521 522//522 539//539
f 521//521 539//539 538//538
f 522//522 523//523 540//540
f 522//522 540//540 539//539
f 523//523 524//524 541//541
f 523//523 541//541 540//540
f 524//524 525//525 542//542
f 524//524 542//542 541//541
f 525//525 526//526 543//543
f 525//525 543//543 542//542
f 526//526 527//527 544//544
f 526//526 544//544 543//543
f 528//528 529//529 546//546
f 528//528 546//546 545//545
f 529//529 530//530 547//547
f 529//529 547//547 546//546
f 530//530 531//531 548//548
f 530//530 548//548 547//547
f 531//531 532//532 549//549
f 531//531 549//549 548//548
f 532//532 533//533 550//550
f 532//532 550//550 549//549
f 533//533 534//534 551//551
f 533//533 551//551 550//550
f 534//534 535//535 552//552
f 534//534 552//552 551//551
f 535//535 536//536 553//553
f 535//535 553//553 552//552
f 536//536 537//537 554//554
f 536//536 554//554 553//553
f 537//537 538//538 555//555
f 537//537 555//555 554//554
f 538//538 539//539 556//556
f 538//538 556//556 555//555
f 539//539 540//540 557//557
f 539//539 557//557 556//556
f 540//540 541//541 558//558
f 540//540 558//558 557//557
f 541//541 542//542 559//559
f 541//541 559//559 558//558
f 542//542 543//543 560//560
f 542//542 560//560 559//559
f 543//543 544//544 561//561
f 543//543 561//561 560//560
