# U78 fixture: crystal, convex, flat facets
v 0.000000 -1.000000 0.000000
v 0.188889 -0.611111 -0.327165
v 0.377778 -0.611111 0.000000
v 0.000000 -1.000000 0.000000
v 0.377778 -0.611111 0.000000
v 0.188889 -0.611111 0.327165
v -0.188889 -0.611111 -0.327165
v 0.000000 -1.000000 0.000000
v -0.377778 -0.611111 0.000000
v -0.188889 -0.611111 -0.327165
v 0.188889 -0.611111 -0.327165
v 0.000000 -1.000000 0.000000
v 0.177778 0.500000 -0.307920
v -0.177778 0.500000 -0.307920
v 0.022222 1.000000 0.011111
v 0.177778 0.500000 -0.307920
v 0.022222 1.000000 0.011111
v 0.355556 0.500000 0.000000
v -0.188889 -0.611111 0.327165
v -0.377778 -0.611111 0.000000
v 0.000000 -1.000000 0.000000
v -0.188889 -0.611111 0.327165
v 0.000000 -1.000000 0.000000
v 0.188889 -0.611111 0.327165
v -0.355556 0.500000 0.000000
v 0.022222 1.000000 0.011111
v -0.177778 0.500000 -0.307920
v -0.355556 0.500000 0.000000
v -0.177778 0.500000 0.307920
v 0.022222 1.000000 0.011111
v 0.177778 0.500000 0.307920
v 0.355556 0.500000 0.000000
v 0.022222 1.000000 0.011111
v 0.177778 0.500000 0.307920
v 0.022222 1.000000 0.011111
v -0.177778 0.500000 0.307920
v 0.177778 0.500000 -0.307920
v -0.188889 -0.611111 -0.327165
v -0.177778 0.500000 -0.307920
v 0.177778 0.500000 -0.307920
v 0.188889 -0.611111 -0.327165
v -0.188889 -0.611111 -0.327165
v 0.177778 0.500000 -0.307920
v 0.377778 -0.611111 0.000000
v 0.188889 -0.611111 -0.327165
v 0.177778 0.500000 -0.307920
v 0.355556 0.500000 0.000000
v 0.377778 -0.611111 0.000000
v -0.355556 0.500000 0.000000
v -0.177778 0.500000 -0.307920
v -0.188889 -0.611111 -0.327165
v -0.355556 0.500000 0.000000
v -0.188889 -0.611111 -0.327165
v -0.377778 -0.611111 0.000000
v -0.355556 0.500000 0.000000
v -0.377778 -0.611111 0.000000
v -0.188889 -0.611111 0.327165
v -0.355556 0.500000 0.000000
v -0.188889 -0.611111 0.327165
v -0.177778 0.500000 0.307920
v 0.177778 0.500000 0.307920
v 0.377778 -0.611111 0.000000
v 0.355556 0.500000 0.000000
v 0.177778 0.500000 0.307920
v 0.188889 -0.611111 0.327165
v 0.377778 -0.611111 0.000000
v 0.177778 0.500000 0.307920
v -0.177778 0.500000 0.307920
v -0.188889 -0.611111 0.327165
v 0.177778 0.500000 0.307920
v -0.188889 -0.611111 0.327165
v 0.188889 -0.611111 0.327165
vn 0.662701 -0.643767 -0.382611
vn 0.662701 -0.643767 0.382611
vn -0.662701 -0.643767 -0.382611
vn -0.000000 -0.643767 -0.765222
vn -0.000000 0.537894 -0.843012
vn 0.746383 0.507165 -0.430925
vn -0.662701 -0.643767 0.382611
vn -0.000000 -0.643767 0.765222
vn -0.720984 0.553994 -0.416260
vn -0.728362 0.540973 0.420520
vn 0.753599 0.492731 0.435091
vn 0.000000 0.510455 0.859905
vn -0.000000 0.017318 -0.999850
vn -0.000000 0.017318 -0.999850
vn 0.865896 0.017318 -0.499925
vn 0.865896 0.017318 -0.499925
vn -0.865896 0.017318 -0.499925
vn -0.865896 0.017318 -0.499925
vn -0.865896 0.017318 0.499925
vn -0.865896 0.017318 0.499925
vn 0.865896 0.017318 0.499925
vn 0.865896 0.017318 0.499925
vn -0.000000 0.017318 0.999850
vn -0.000000 0.017318 0.999850
f 1//1 2//1 3//1
f 4//2 5//2 6//2
f 7//3 8//3 9//3
f 10//4 11//4 12//4
f 13//5 14//5 15//5
f 16//6 17//6 18//6
f 19//7 20//7 21//7
f 22//8 23//8 24//8
f 25//9 26//9 27//9
f 28//10 29//10 30//10
f 31//11 32//11 33//11
f 34//12 35//12 36//12
f 37//13 38//13 39//13
f 40//14 41//14 42//14
f 43//15 44//15 45//15
f 46//16 47//16 48//16
f 49//17 50//17 51//17
f 52//18 53//18 54//18
f 55//19 56//19 57//19
f 58//20 59//20 60//20
f 61//21 62//21 63//21
f 64//22 65//22 66//22
f 67//23 68//23 69//23
f 70//24 71//24 72//24
