{
	"asset":{
		"generator":"Khronos glTF Blender I/O v4.4.56",
		"version":"2.0"
	},
	"scene":0,
	"scenes":[
		{
			"name":"Scene",
			"nodes":[
				0,
				1,
				2,
				3
			]
		}
	],
	"nodes":[
		{
			"mesh":0,
			"name":"tube"
		},
		{
			"mesh":1,
			"name":"floor"
		},
		{
			"mesh":2,
			"name":"video"
		},
		{
			"mesh":3,
			"name":"svg"
		}
	],
	"materials":[
		{
			"doubleSided":true,
			"name":"glass",
			"pbrMetallicRoughness":{
				"baseColorFactor":[
					0.800000011920929,
					0.800000011920929,
					0.800000011920929,
					1
				],
				"metallicFactor":0,
				"roughnessFactor":0.4000000059604645
			}
		},
		{
			"doubleSided":true,
			"name":"floor",
			"pbrMetallicRoughness":{
				"baseColorFactor":[
					0.800000011920929,
					0.800000011920929,
					0.800000011920929,
					1
				],
				"metallicFactor":0,
				"roughnessFactor":0.4000000059604645
			}
		},
		{
			"doubleSided":true,
			"name":"video",
			"pbrMetallicRoughness":{
				"baseColorFactor":[
					0.800000011920929,
					0.800000011920929,
					0.800000011920929,
					1
				],
				"metallicFactor":0,
				"roughnessFactor":0.4000000059604645
			}
		},
		{
			"doubleSided":true,
			"name":"svg",
			"pbrMetallicRoughness":{
				"baseColorFactor":[
					0.800000011920929,
					0.800000011920929,
					0.800000011920929,
					1
				],
				"metallicFactor":0,
				"roughnessFactor":0.4000000059604645
			}
		}
	],
	"meshes":[
		{
			"name":"tube_curve",
			"primitives":[
				{
					"attributes":{
						"POSITION":0,
						"NORMAL":1,
						"TEXCOORD_0":2
					},
					"indices":3,
					"material":0
				}
			]
		},
		{
			"name":"\u5e73\u9762",
			"primitives":[
				{
					"attributes":{
						"POSITION":4,
						"NORMAL":5,
						"TEXCOORD_0":6
					},
					"indices":7,
					"material":1
				}
			]
		},
		{
			"name":"\u5e73\u9762.001",
			"primitives":[
				{
					"attributes":{
						"POSITION":8,
						"NORMAL":9,
						"TEXCOORD_0":10
					},
					"indices":11,
					"material":2
				}
			]
		},
		{
			"name":"\u5e73\u9762.002",
			"primitives":[
				{
					"attributes":{
						"POSITION":12,
						"NORMAL":13,
						"TEXCOORD_0":14
					},
					"indices":11,
					"material":3
				}
			]
		}
	],
	"accessors":[
		{
			"bufferView":0,
			"componentType":5126,
			"count":83005,
			"max":[
				6.97526741027832,
				2.8500049114227295,
				2.815157890319824
			],
			"min":[
				-6.976588249206543,
				-1.554654598236084,
				-1.6703898906707764
			],
			"type":"VEC3"
		},
		{
			"bufferView":1,
			"componentType":5126,
			"count":83005,
			"type":"VEC3"
		},
		{
			"bufferView":2,
			"componentType":5126,
			"count":83005,
			"type":"VEC2"
		},
		{
			"bufferView":3,
			"componentType":5125,
			"count":489996,
			"type":"SCALAR"
		},
		{
			"bufferView":4,
			"componentType":5126,
			"count":24,
			"max":[
				30,
				-1.600000023841858,
				30
			],
			"min":[
				-30,
				-1.8000000715255737,
				-30
			],
			"type":"VEC3"
		},
		{
			"bufferView":5,
			"componentType":5126,
			"count":24,
			"type":"VEC3"
		},
		{
			"bufferView":6,
			"componentType":5126,
			"count":24,
			"type":"VEC2"
		},
		{
			"bufferView":7,
			"componentType":5123,
			"count":36,
			"type":"SCALAR"
		},
		{
			"bufferView":8,
			"componentType":5126,
			"count":24,
			"max":[
				8,
				6,
				5.099999904632568
			],
			"min":[
				-8,
				-3,
				5
			],
			"type":"VEC3"
		},
		{
			"bufferView":9,
			"componentType":5126,
			"count":24,
			"type":"VEC3"
		},
		{
			"bufferView":10,
			"componentType":5126,
			"count":24,
			"type":"VEC2"
		},
		{
			"bufferView":11,
			"componentType":5123,
			"count":36,
			"type":"SCALAR"
		},
		{
			"bufferView":12,
			"componentType":5126,
			"count":24,
			"max":[
				2.5,
				2.9000000953674316,
				3.049999952316284
			],
			"min":[
				-0.5,
				-0.10000002384185791,
				3
			],
			"type":"VEC3"
		},
		{
			"bufferView":13,
			"componentType":5126,
			"count":24,
			"type":"VEC3"
		},
		{
			"bufferView":14,
			"componentType":5126,
			"count":24,
			"type":"VEC2"
		}
	],
	"bufferViews":[
		{
			"buffer":0,
			"byteLength":996060,
			"byteOffset":0,
			"target":34962
		},
		{
			"buffer":0,
			"byteLength":996060,
			"byteOffset":996060,
			"target":34962
		},
		{
			"buffer":0,
			"byteLength":664040,
			"byteOffset":1992120,
			"target":34962
		},
		{
			"buffer":0,
			"byteLength":1959984,
			"byteOffset":2656160,
			"target":34963
		},
		{
			"buffer":0,
			"byteLength":288,
			"byteOffset":4616144,
			"target":34962
		},
		{
			"buffer":0,
			"byteLength":288,
			"byteOffset":4616432,
			"target":34962
		},
		{
			"buffer":0,
			"byteLength":192,
			"byteOffset":4616720,
			"target":34962
		},
		{
			"buffer":0,
			"byteLength":72,
			"byteOffset":4616912,
			"target":34963
		},
		{
			"buffer":0,
			"byteLength":288,
			"byteOffset":4616984,
			"target":34962
		},
		{
			"buffer":0,
			"byteLength":288,
			"byteOffset":4617272,
			"target":34962
		},
		{
			"buffer":0,
			"byteLength":192,
			"byteOffset":4617560,
			"target":34962
		},
		{
			"buffer":0,
			"byteLength":72,
			"byteOffset":4617752,
			"target":34963
		},
		{
			"buffer":0,
			"byteLength":288,
			"byteOffset":4617824,
			"target":34962
		},
		{
			"buffer":0,
			"byteLength":288,
			"byteOffset":4618112,
			"target":34962
		},
		{
			"buffer":0,
			"byteLength":192,
			"byteOffset":4618400,
			"target":34962
		}
	],
	"buffers":[
		{
			"byteLength":4618592,
			"uri":"scene.bin"
		}
	]
}
